# xmcd CD database file
#
# Track frame offsets:
#	150
#	14022
#	56881
#	103569
#	143650
#	179034
#	200797
#	228444
#	270744
#	306884
#
# Disc length: 4509 seconds
#
# Revision: 2
# Processed by: cddbd v1.5.2PL0 Copyright (c) Steve Scherf et al.
# Submitted via: CDex 1.70beta2
#
DISCID=97119b0a
DTITLE=Thelonious Monk - The Thelonious Monk Orchestra at Town Hall/5 By Monk By 5
DYEAR=1959
DGENRE=Jazz
TTITLE0=Thelonious
TTITLE1=Friday the 13th
TTITLE2=Monk's Mood
TTITLE3=Little Rootie Tootie
TTITLE4=Off Minor
TTITLE5=Crepuscule With Nellie
TTITLE6=Jackie-Ing
TTITLE7=Straight No Chaser
TTITLE8=Played Twice (Take 3)
TTITLE9=Played Twice (Take 1)
EXTD=YEAR: 1959
EXTT0=
EXTT1=
EXTT2=
EXTT3=
EXTT4=
EXTT5=
EXTT6=
EXTT7=
EXTT8=
EXTT9=
PLAYORDER=
